<?xml version="1.0" encoding="UTF-8"?>
<!DOCTYPE svg PUBLIC "-//W3C//DTD SVG 1.1//EN" "http://www.w3.org/Graphics/SVG/1.1/DTD/svg11.dtd">
<svg xmlns="http://www.w3.org/2000/svg" version="1.1" width="256px" height="256px" style="shape-rendering:geometricPrecision; text-rendering:geometricPrecision; image-rendering:optimizeQuality; fill-rule:evenodd; clip-rule:evenodd" xmlns:xlink="http://www.w3.org/1999/xlink">
<g><path style="opacity:0.882" fill="#000000" d="M 194.5,5.5 C 201.771,5.03574 204.604,8.36908 203,15.5C 198.413,23.0045 194.08,30.6712 190,38.5C 186,42.5 182,42.5 178,38.5C 177.333,36.1667 177.333,33.8333 178,31.5C 182.333,23.8333 186.667,16.1667 191,8.5C 192.145,7.36362 193.312,6.36362 194.5,5.5 Z"/></g>
<g><path style="opacity:0.915" fill="#000000" d="M 117.5,18.5 C 124.255,17.6681 130.589,18.8348 136.5,22C 144.252,32.8309 151.252,44.1642 157.5,56C 171.656,51.8318 184.156,54.6652 195,64.5C 203.723,76.5089 204.723,89.1756 198,102.5C 195.688,105.979 192.854,108.979 189.5,111.5C 196.173,122.177 202.34,133.177 208,144.5C 210.693,156.953 206.193,165.453 194.5,170C 175.833,169.667 157.167,169.333 138.5,169C 127.31,169.637 116.643,172.304 106.5,177C 113.459,188.417 120.293,199.917 127,211.5C 134.172,227.652 130.006,239.819 114.5,248C 103.845,250.878 94.6781,248.378 87,240.5C 79.4188,227.002 71.5855,213.669 63.5,200.5C 37.8832,208.022 18.3832,200.356 5,177.5C -3.8936,153.193 1.93973,133.359 22.5,118C 35.1667,110.667 47.8333,103.333 60.5,96C 73.0544,86.3686 82.8877,74.5353 90,60.5C 95.6822,49.1356 101.349,37.8022 107,26.5C 109.855,22.7893 113.355,20.1226 117.5,18.5 Z M 121.5,31.5 C 126.023,31.345 129.189,33.345 131,37.5C 152.949,75.1065 174.449,112.94 195.5,151C 194.152,155.761 190.986,157.928 186,157.5C 167.87,155.677 149.704,155.177 131.5,156C 120.692,157.119 110.358,159.952 100.5,164.5C 89.8447,147.867 79.678,130.867 70,113.5C 68.6989,111.598 68.0322,109.598 68,107.5C 82.9381,96.2283 94.6048,82.2283 103,65.5C 108,55.1667 113,44.8333 118,34.5C 119.145,33.3636 120.312,32.3636 121.5,31.5 Z M 170.5,67.5 C 184.733,69.5463 190.566,77.5463 188,91.5C 187.089,94.5755 185.256,96.9089 182.5,98.5C 176.581,88.9977 170.914,79.331 165.5,69.5C 167.291,68.8302 168.958,68.1635 170.5,67.5 Z M 53.5,115.5 C 55.6237,116.031 57.1237,117.365 58,119.5C 67.8333,136.667 77.6667,153.833 87.5,171C 78.3264,177.423 68.6597,183.09 58.5,188C 43.7551,192.642 31.2551,189.142 21,177.5C 10.9448,160.874 12.7782,145.708 26.5,132C 35.5638,126.475 44.5638,120.975 53.5,115.5 Z M 93.5,183.5 C 94.3764,183.369 95.0431,183.702 95.5,184.5C 103.268,197.599 110.601,210.933 117.5,224.5C 115.989,232.926 110.989,236.426 102.5,235C 100.376,233.878 98.5429,232.378 97,230.5C 89.9137,218.663 83.0803,206.663 76.5,194.5C 82.4018,191.058 88.0685,187.392 93.5,183.5 Z"/></g>
<g><path style="opacity:0.885" fill="#000000" d="M 229.5,43.5 C 238.166,41.9931 241.333,45.3264 239,53.5C 231.027,59.4609 222.527,64.6276 213.5,69C 204.844,70.1828 202.01,66.6828 205,58.5C 213.314,53.6001 221.481,48.6001 229.5,43.5 Z"/></g>
<g><path style="opacity:0.924" fill="#000000" d="M 218.5,93.5 C 229.172,93.3335 239.839,93.5002 250.5,94C 255.268,97.7057 255.601,101.706 251.5,106C 240.167,106.667 228.833,106.667 217.5,106C 213.743,101.617 214.076,97.4506 218.5,93.5 Z"/></g>
</svg>
